# File created by Blade
# Date/Time:  Tue Apr 07 20:13:55 2015
# Frame Rate: 120.000 fps
#------------------------------------------------------
:FULLY-SPECIFIED
:DEGREES
2509
root 1.568819 31.747012 -10.622923 -14.272390 11.967804 -4.812176
Spine 23.711351 -7.807881 2.722033
Head -2.716441 -4.957370 -11.206704
LeftShoulder 1.016790 34.364755 17.558625
LeftArm 85.044772 23.077613 -40.722218
LeftForeArm -63.085580 -0.000000 63.895013
LeftHand -1.239160 -0.000000 -3.812029
LeftHandThumb1 -26.253704 0.000000 33.147579
RightShoulder 7.158656 -0.614030 -22.170127
RightArm 26.496937 -29.645779 64.729866
RightForeArm 54.518338 -0.000000 80.410777
RightHand 1.245125 -0.000000 33.824287
RightHandThumb1 -24.326973 -0.000000 -32.862282
LeftUpLeg -1.486588 0.805130 -1.498433
LeftLeg 29.311693 -0.000000 -0.000000
LeftFoot -21.133787 9.787903 -11.536686
LeftToeBase -12.281009 -0.000000 0.000000
RightUpLeg -120.191097 2.955091 21.818261
RightLeg 67.894884 -0.000000 -0.000000
RightFoot 42.480567 -8.912794 10.438744
RightToeBase 35.277852 -0.000000 -0.000000
2510
root 1.563174 31.732516 -10.624336 -14.193671 12.354971 -4.659023
Spine 23.751078 -8.013934 2.753940
Head -2.791961 -4.963193 -11.396063
LeftShoulder 1.136789 34.253181 17.656766
LeftArm 84.950603 23.072193 -40.847650
LeftForeArm -63.126679 -0.000000 63.821837
LeftHand -1.269722 -0.000000 -3.839975
LeftHandThumb1 -26.253704 0.000000 33.147579
RightShoulder 7.118936 -0.614858 -22.153860
RightArm 26.648724 -29.638017 64.685505
RightForeArm 54.469097 -0.000000 80.282976
RightHand 1.254504 -0.000000 33.467398
RightHandThumb1 -24.326973 -0.000000 -32.862282
LeftUpLeg -1.675426 1.072337 -1.640513
LeftLeg 29.448698 -0.000000 -0.000000
LeftFoot -20.564625 9.823889 -10.571049
LeftToeBase -12.685466 -0.000000 0.000000
RightUpLeg -120.117684 2.759873 21.828034
RightLeg 68.121862 -0.000000 -0.000000
RightFoot 42.508813 -9.112402 10.113522
RightToeBase 35.361030 -0.000000 -0.000000
2511
root 1.561165 31.719776 -10.620927 -14.159283 12.757274 -4.521227
Spine 23.806946 -8.241777 2.813174
Head -2.806092 -4.963760 -11.607675
LeftShoulder 1.225742 34.110720 17.682489
LeftArm 84.845033 22.974019 -40.782708
LeftForeArm -63.054812 -0.000000 63.860151
LeftHand -1.359855 -0.000000 -3.988891
LeftHandThumb1 -26.253704 0.000000 33.147579
RightShoulder 7.068985 -0.614624 -22.115776
RightArm 26.843993 -29.641562 64.533685
RightForeArm 54.473430 0.000000 80.185376
RightHand 1.246086 0.000000 33.083396
RightHandThumb1 -24.326973 -0.000000 -32.862282
LeftUpLeg -1.801961 1.171139 -1.805569
LeftLeg 29.563713 -0.000000 -0.000000
LeftFoot -20.104181 9.889202 -9.891978
LeftToeBase -12.983997 -0.000000 0.000000
RightUpLeg -120.076943 2.506616 21.695069
RightLeg 68.356171 -0.000000 -0.000000
RightFoot 42.658527 -9.023954 10.021052
RightToeBase 35.041060 -0.000000 -0.000000
2512
root 1.558012 31.709497 -10.607916 -14.175122 13.165903 -4.397002
Spine 23.864358 -8.480886 2.878029
Head -2.725036 -4.923341 -11.829203
LeftShoulder 1.292004 34.077740 17.695620
LeftArm 84.777967 22.846017 -40.752052
LeftForeArm -63.102510 0.000000 63.954883
LeftHand -1.381252 -0.000000 -3.831744
LeftHandThumb1 -26.253704 0.000000 33.147579
RightShoulder 7.000346 -0.544888 -22.050534
RightArm 27.009731 -29.684151 64.394997
RightForeArm 54.545832 -0.000000 80.075500
RightHand 1.255651 -0.000000 32.709191
RightHandThumb1 -24.326973 -0.000000 -32.862282
LeftUpLeg -1.848315 1.207028 -1.959606
LeftLeg 29.660867 -0.000000 -0.000000
LeftFoot -19.672162 9.952237 -9.253372
LeftToeBase -13.173644 -0.000000 0.000000
RightUpLeg -120.034490 2.268140 21.717900
RightLeg 68.609360 -0.000000 -0.000000
RightFoot 42.590387 -9.137654 10.090364
RightToeBase 34.970178 -0.000000 -0.000000
2513
root 1.556979 31.702785 -10.587002 -14.267949 13.530908 -4.286487
Spine 23.968272 -8.659668 2.967946
Head -2.573617 -4.901651 -12.021566
LeftShoulder 1.360981 34.087795 17.724091
LeftArm 84.735119 22.701832 -40.751311
LeftForeArm -63.066731 -0.000000 64.050608
LeftHand -1.583001 -0.000000 -3.910389
LeftHandThumb1 -26.253704 0.000000 33.147579
RightShoulder 6.907288 -0.483093 -21.982258
RightArm 27.211595 -29.752112 64.201631
RightForeArm 54.604565 0.000000 79.968541
RightHand 1.197392 -0.000000 32.300264
RightHandThumb1 -24.326973 -0.000000 -32.862282
LeftUpLeg -1.783082 1.235541 -2.103696
LeftLeg 29.721620 -0.000000 -0.000000
LeftFoot -19.278994 10.063767 -8.665574
LeftToeBase -13.329184 -0.000000 0.000000
RightUpLeg -119.953512 2.053073 21.763731
RightLeg 68.836451 -0.000000 -0.000000
RightFoot 42.623345 -8.883532 10.027994
RightToeBase 35.357096 -0.000000 -0.000000
2514
root 1.551181 31.697713 -10.561566 -14.355532 13.860604 -4.163496
Spine 24.045593 -8.829407 3.012211
Head -2.354817 -4.862801 -12.145016
LeftShoulder 1.375991 34.055766 17.771231
LeftArm 84.650933 22.639551 -40.708635
LeftForeArm -63.202119 -0.000000 64.209244
LeftHand -1.454579 0.000000 -3.560752
LeftHandThumb1 -26.253704 0.000000 33.147579
RightShoulder 6.849407 -0.339807 -21.889509
RightArm 27.312321 -29.836837 64.090798
RightForeArm 54.584309 -0.000000 79.902421
RightHand 1.210480 -0.000000 31.870335
RightHandThumb1 -24.326973 -0.000000 -32.862282
LeftUpLeg -1.715641 1.248097 -2.246909
LeftLeg 29.793941 -0.000000 -0.000000
LeftFoot -18.930903 10.170078 -8.167283
LeftToeBase -13.390951 -0.000000 0.000000
RightUpLeg -119.901638 1.913182 21.812095
RightLeg 69.036349 -0.000000 -0.000000
RightFoot 42.669608 -8.784056 10.081207
RightToeBase 35.394975 -0.000000 -0.000000
2515
root 1.541612 31.695603 -10.532518 -14.465207 14.096677 -4.075532
Spine 24.109348 -8.913139 3.107524
Head -2.066890 -4.806331 -12.253494
LeftShoulder 1.398886 34.039530 17.840224
LeftArm 84.589650 22.571701 -40.670515
LeftForeArm -63.372139 0.000000 64.327470
LeftHand -1.380922 -0.000000 -3.509347
LeftHandThumb1 -26.253704 0.000000 33.147579
RightShoulder 6.850144 -0.234048 -21.823593
RightArm 27.349118 -29.876061 64.048265
RightForeArm 54.554552 -0.000000 79.901535
RightHand 1.196337 0.000000 31.406226
RightHandThumb1 -24.326973 -0.000000 -32.862282
LeftUpLeg -1.636199 1.305243 -2.332536
LeftLeg 29.893195 -0.000000 -0.000000
LeftFoot -18.554643 10.301525 -7.675171
LeftToeBase -13.546346 -0.000000 0.000000
RightUpLeg -119.830971 1.875789 21.895921
RightLeg 69.220190 -0.000000 -0.000000
RightFoot 42.627001 -8.577827 10.063445
RightToeBase 35.546315 -0.000000 -0.000000
2516
root 1.525249 31.695824 -10.495683 -14.610112 14.273149 -4.013245
Spine 24.185666 -8.957977 3.194001
Head -1.739007 -4.725216 -12.238135
LeftShoulder 1.394552 34.119765 17.963906
LeftArm 84.580955 22.459911 -40.684808
LeftForeArm -63.382795 -0.000000 64.440250
LeftHand -1.447532 -0.000000 -3.560317
LeftHandThumb1 -26.253704 0.000000 33.147579
RightShoulder 6.848653 -0.095580 -21.750792
RightArm 27.323594 -29.903257 64.109600
RightForeArm 54.637537 0.000000 79.993695
RightHand 1.330269 -0.000000 30.913998
RightHandThumb1 -24.326973 -0.000000 -32.862282
LeftUpLeg -1.542781 1.399398 -2.362790
LeftLeg 30.057048 -0.000000 -0.000000
LeftFoot -18.145883 10.362714 -7.127509
LeftToeBase -13.792925 -0.000000 0.000000
RightUpLeg -119.742229 1.923317 21.976887
RightLeg 69.386587 -0.000000 -0.000000
RightFoot 42.478168 -8.540027 10.284202
RightToeBase 35.840230 -0.000000 -0.000000
2517
root 1.507171 31.698355 -10.456334 -14.764561 14.405391 -3.996977
Spine 24.240715 -8.970154 3.339997
Head -1.374629 -4.633830 -12.189131
LeftShoulder 1.397566 34.103996 18.086049
LeftArm 84.537608 22.435307 -40.697913
LeftForeArm -63.359050 -0.000000 64.518176
LeftHand -1.304340 -0.000000 -3.631991
LeftHandThumb1 -26.253704 0.000000 33.147579
RightShoulder 6.871479 -0.056424 -21.711008
RightArm 27.294387 -29.858740 64.169426
RightForeArm 54.582395 -0.000000 80.121772
RightHand 1.371939 -0.000000 30.456130
RightHandThumb1 -24.326973 -0.000000 -32.862282
LeftUpLeg -1.482024 1.453542 -2.350804
LeftLeg 30.293133 -0.000000 -0.000000
LeftFoot -17.751334 10.466176 -6.619758
LeftToeBase -14.086190 -0.000000 0.000000
RightUpLeg -119.678182 2.027304 22.066990
RightLeg 69.531956 -0.000000 -0.000000
RightFoot 42.342400 -8.720936 10.980790
RightToeBase 35.786176 -0.000000 -0.000000
2518
root 1.483703 31.703160 -10.415839 -14.918387 14.573214 -4.064360
Spine 24.266416 -9.047322 3.564426
Head -1.054211 -4.541028 -12.132600
LeftShoulder 1.406124 34.064173 18.200261
LeftArm 84.466657 22.412948 -40.704279
LeftForeArm -63.502701 0.000000 64.652283
LeftHand -1.233043 -0.000000 -3.782612
LeftHandThumb1 -26.253704 0.000000 33.147579
RightShoulder 6.845220 -0.097441 -21.704943
RightArm 27.327988 -29.773450 64.226644
RightForeArm 54.346810 -0.000000 80.245957
RightHand 1.323167 0.000000 30.088059
RightHandThumb1 -24.326973 -0.000000 -32.862282
LeftUpLeg -1.538935 1.475907 -2.256339
LeftLeg 30.729761 -0.000000 -0.000000
LeftFoot -17.376390 10.536745 -6.244765
LeftToeBase -14.497680 -0.000000 0.000000
RightUpLeg -119.665244 2.104944 22.250336
RightLeg 69.663560 -0.000000 -0.000000
RightFoot 42.116599 -8.499232 11.622259
RightToeBase 35.831070 -0.000000 -0.000000
